<svg xmlns="http://www.w3.org/2000/svg" xmlns:xlink="http://www.w3.org/1999/xlink" width="500" zoomAndPan="magnify" viewBox="0 0 375 374.999991" height="500" preserveAspectRatio="xMidYMid meet" version="1.0"><defs><g/><clipPath id="df317bb0f4"><path d="M 173 170 L 212 170 L 212 233.804688 L 173 233.804688 Z M 173 170 " clip-rule="nonzero"/></clipPath><clipPath id="3ae4007be8"><path d="M 126.859375 202 L 149 202 L 149 223 L 126.859375 223 Z M 126.859375 202 " clip-rule="nonzero"/></clipPath><clipPath id="d204bddb7c"><path d="M 188 217 L 214 217 L 214 233.804688 L 188 233.804688 Z M 188 217 " clip-rule="nonzero"/></clipPath><clipPath id="52298ca743"><path d="M 157 79.304688 L 233 79.304688 L 233 154 L 157 154 Z M 157 79.304688 " clip-rule="nonzero"/></clipPath></defs><g fill="#f4f6fc" fill-opacity="1"><g transform="translate(22.42443, 248.982288)"><g><path d="M 28.765625 -9.796875 C 30.410156 -9.796875 32.007812 -10.046875 33.5625 -10.546875 C 35.125 -11.046875 36.269531 -11.523438 37 -11.984375 L 38.09375 -12.734375 L 42.71875 -3.515625 C 42.5625 -3.398438 42.347656 -3.242188 42.078125 -3.046875 C 41.804688 -2.859375 41.179688 -2.503906 40.203125 -1.984375 C 39.222656 -1.460938 38.175781 -1.007812 37.0625 -0.625 C 35.945312 -0.25 34.484375 0.0859375 32.671875 0.390625 C 30.867188 0.703125 29.007812 0.859375 27.09375 0.859375 C 22.675781 0.859375 18.488281 -0.222656 14.53125 -2.390625 C 10.570312 -4.566406 7.378906 -7.554688 4.953125 -11.359375 C 2.535156 -15.160156 1.328125 -19.269531 1.328125 -23.6875 C 1.328125 -27.03125 2.035156 -30.238281 3.453125 -33.3125 C 4.878906 -36.382812 6.773438 -39.015625 9.140625 -41.203125 C 11.503906 -43.398438 14.257812 -45.148438 17.40625 -46.453125 C 20.5625 -47.765625 23.789062 -48.421875 27.09375 -48.421875 C 30.164062 -48.421875 33 -48.054688 35.59375 -47.328125 C 38.1875 -46.597656 40.019531 -45.863281 41.09375 -45.125 L 42.71875 -44.03125 L 38.09375 -34.8125 C 37.832031 -35.039062 37.429688 -35.316406 36.890625 -35.640625 C 36.347656 -35.972656 35.269531 -36.40625 33.65625 -36.9375 C 32.039062 -37.476562 30.410156 -37.75 28.765625 -37.75 C 26.148438 -37.75 23.804688 -37.328125 21.734375 -36.484375 C 19.660156 -35.640625 18.015625 -34.523438 16.796875 -33.140625 C 15.585938 -31.753906 14.664062 -30.265625 14.03125 -28.671875 C 13.394531 -27.078125 13.078125 -25.457031 13.078125 -23.8125 C 13.078125 -20.195312 14.429688 -16.957031 17.140625 -14.09375 C 19.859375 -11.226562 23.734375 -9.796875 28.765625 -9.796875 Z M 28.765625 -9.796875 "/></g></g></g><g fill="#f4f6fc" fill-opacity="1"><g transform="translate(61.895699, 248.982288)"><g><path d="M 1.328125 -23.8125 C 1.328125 -30.6875 3.671875 -36.503906 8.359375 -41.265625 C 13.046875 -46.035156 18.691406 -48.421875 25.296875 -48.421875 C 31.953125 -48.421875 37.601562 -46.046875 42.25 -41.296875 C 46.894531 -36.554688 49.21875 -30.726562 49.21875 -23.8125 C 49.21875 -16.851562 46.929688 -11 42.359375 -6.25 C 37.785156 -1.507812 32.097656 0.859375 25.296875 0.859375 C 18.347656 0.859375 12.613281 -1.488281 8.09375 -6.1875 C 3.582031 -10.894531 1.328125 -16.769531 1.328125 -23.8125 Z M 13.03125 -23.8125 C 13.03125 -21.3125 13.410156 -19.03125 14.171875 -16.96875 C 14.941406 -14.914062 16.285156 -13.175781 18.203125 -11.75 C 20.128906 -10.332031 22.492188 -9.625 25.296875 -9.625 C 29.335938 -9.625 32.382812 -11.003906 34.4375 -13.765625 C 36.5 -16.535156 37.53125 -19.882812 37.53125 -23.8125 C 37.53125 -27.6875 36.476562 -31.015625 34.375 -33.796875 C 32.28125 -36.585938 29.253906 -37.984375 25.296875 -37.984375 C 21.378906 -37.984375 18.351562 -36.585938 16.21875 -33.796875 C 14.09375 -31.015625 13.03125 -27.6875 13.03125 -23.8125 Z M 13.03125 -23.8125 "/></g></g></g><g fill="#f4f6fc" fill-opacity="1"><g transform="translate(108.512284, 248.982288)"><g><path d="M 3.453125 -47.546875 L 17.234375 -47.546875 C 23.847656 -47.546875 29.5 -45.289062 34.1875 -40.78125 C 38.875 -36.269531 41.21875 -30.613281 41.21875 -23.8125 C 41.21875 -16.96875 38.878906 -11.285156 34.203125 -6.765625 C 29.535156 -2.253906 23.878906 0 17.234375 0 L 3.453125 0 Z M 14.296875 -9.6875 L 15.96875 -9.6875 C 19.925781 -9.6875 23.160156 -11.019531 25.671875 -13.6875 C 28.191406 -16.363281 29.472656 -19.71875 29.515625 -23.75 C 29.515625 -27.78125 28.253906 -31.140625 25.734375 -33.828125 C 23.222656 -36.523438 19.96875 -37.875 15.96875 -37.875 L 14.296875 -37.875 Z M 14.296875 -9.6875 "/></g></g></g><g fill="#f4f6fc" fill-opacity="1"><g transform="translate(147.119207, 248.982288)"><g><path d="M 30.671875 -47.546875 L 30.671875 -38.046875 L 14.296875 -38.046875 L 14.296875 -28.59375 L 29.96875 -28.59375 L 29.96875 -19.078125 L 14.296875 -19.078125 L 14.296875 -9.515625 L 30.671875 -9.515625 L 30.671875 0 L 3.453125 0 L 3.453125 -47.546875 Z M 30.671875 -47.546875 "/></g></g></g><g fill="#f4f6fc" fill-opacity="1"><g transform="translate(176.621603, 248.982288)"><g><path d="M 20.984375 -48.421875 C 23.554688 -48.421875 26.070312 -48.046875 28.53125 -47.296875 C 30.988281 -46.546875 32.816406 -45.804688 34.015625 -45.078125 L 35.734375 -43.921875 L 31.359375 -35.28125 C 31.015625 -35.507812 30.535156 -35.804688 29.921875 -36.171875 C 29.304688 -36.535156 28.148438 -37.023438 26.453125 -37.640625 C 24.765625 -38.253906 23.191406 -38.5625 21.734375 -38.5625 C 19.921875 -38.5625 18.523438 -38.175781 17.546875 -37.40625 C 16.566406 -36.632812 16.078125 -35.597656 16.078125 -34.296875 C 16.078125 -33.640625 16.304688 -33.03125 16.765625 -32.46875 C 17.234375 -31.914062 18.023438 -31.320312 19.140625 -30.6875 C 20.253906 -30.0625 21.234375 -29.554688 22.078125 -29.171875 C 22.921875 -28.785156 24.226562 -28.207031 26 -27.4375 C 29.070312 -26.132812 31.691406 -24.359375 33.859375 -22.109375 C 36.035156 -19.859375 37.125 -17.3125 37.125 -14.46875 C 37.125 -11.738281 36.632812 -9.351562 35.65625 -7.3125 C 34.675781 -5.28125 33.328125 -3.6875 31.609375 -2.53125 C 29.898438 -1.382812 28.007812 -0.535156 25.9375 0.015625 C 23.863281 0.578125 21.613281 0.859375 19.1875 0.859375 C 17.113281 0.859375 15.078125 0.644531 13.078125 0.21875 C 11.085938 -0.195312 9.414062 -0.722656 8.0625 -1.359375 C 6.71875 -1.992188 5.507812 -2.617188 4.4375 -3.234375 C 3.363281 -3.847656 2.578125 -4.363281 2.078125 -4.78125 L 1.328125 -5.421875 L 6.75 -14.53125 C 7.207031 -14.144531 7.835938 -13.648438 8.640625 -13.046875 C 9.453125 -12.453125 10.882812 -11.65625 12.9375 -10.65625 C 15 -9.664062 16.816406 -9.171875 18.390625 -9.171875 C 22.960938 -9.171875 25.25 -10.722656 25.25 -13.828125 C 25.25 -14.484375 25.082031 -15.085938 24.75 -15.640625 C 24.425781 -16.203125 23.847656 -16.757812 23.015625 -17.3125 C 22.191406 -17.875 21.460938 -18.316406 20.828125 -18.640625 C 20.203125 -18.972656 19.164062 -19.472656 17.71875 -20.140625 C 16.28125 -20.816406 15.21875 -21.328125 14.53125 -21.671875 C 11.644531 -23.097656 9.410156 -24.875 7.828125 -27 C 6.253906 -29.132812 5.46875 -31.429688 5.46875 -33.890625 C 5.46875 -38.160156 7.039062 -41.648438 10.1875 -44.359375 C 13.34375 -47.066406 16.941406 -48.421875 20.984375 -48.421875 Z M 20.984375 -48.421875 "/></g></g></g><g fill="#f4f6fc" fill-opacity="1"><g transform="translate(211.425363, 248.982288)"><g><path d="M 3.453125 -47.546875 L 20.8125 -47.546875 C 25.65625 -47.546875 29.570312 -46.296875 32.5625 -43.796875 C 35.5625 -41.304688 37.0625 -37.675781 37.0625 -32.90625 C 37.0625 -28.144531 35.539062 -24.410156 32.5 -21.703125 C 29.46875 -18.992188 25.570312 -17.640625 20.8125 -17.640625 L 14.296875 -17.640625 L 14.296875 0 L 3.453125 0 Z M 14.296875 -26.28125 L 17.34375 -26.28125 C 19.769531 -26.28125 21.757812 -26.769531 23.3125 -27.75 C 24.875 -28.726562 25.65625 -30.332031 25.65625 -32.5625 C 25.65625 -34.832031 24.875 -36.457031 23.3125 -37.4375 C 21.757812 -38.414062 19.769531 -38.90625 17.34375 -38.90625 L 14.296875 -38.90625 Z M 14.296875 -26.28125 "/></g></g></g><g fill="#f4f6fc" fill-opacity="1"><g transform="translate(245.883388, 248.982288)"><g><path d="M 27.609375 -47.546875 L 46.796875 0 L 35.15625 0 L 31.640625 -9.515625 L 13.546875 -9.515625 L 10.03125 0 L -1.609375 0 L 17.578125 -47.546875 Z M 27.953125 -19.015625 L 22.65625 -32.859375 L 22.53125 -32.859375 L 17.234375 -19.015625 Z M 27.953125 -19.015625 "/></g></g></g><g fill="#f4f6fc" fill-opacity="1"><g transform="translate(287.140992, 248.982288)"><g><path d="M 28.765625 -9.796875 C 30.410156 -9.796875 32.007812 -10.046875 33.5625 -10.546875 C 35.125 -11.046875 36.269531 -11.523438 37 -11.984375 L 38.09375 -12.734375 L 42.71875 -3.515625 C 42.5625 -3.398438 42.347656 -3.242188 42.078125 -3.046875 C 41.804688 -2.859375 41.179688 -2.503906 40.203125 -1.984375 C 39.222656 -1.460938 38.175781 -1.007812 37.0625 -0.625 C 35.945312 -0.25 34.484375 0.0859375 32.671875 0.390625 C 30.867188 0.703125 29.007812 0.859375 27.09375 0.859375 C 22.675781 0.859375 18.488281 -0.222656 14.53125 -2.390625 C 10.570312 -4.566406 7.378906 -7.554688 4.953125 -11.359375 C 2.535156 -15.160156 1.328125 -19.269531 1.328125 -23.6875 C 1.328125 -27.03125 2.035156 -30.238281 3.453125 -33.3125 C 4.878906 -36.382812 6.773438 -39.015625 9.140625 -41.203125 C 11.503906 -43.398438 14.257812 -45.148438 17.40625 -46.453125 C 20.5625 -47.765625 23.789062 -48.421875 27.09375 -48.421875 C 30.164062 -48.421875 33 -48.054688 35.59375 -47.328125 C 38.1875 -46.597656 40.019531 -45.863281 41.09375 -45.125 L 42.71875 -44.03125 L 38.09375 -34.8125 C 37.832031 -35.039062 37.429688 -35.316406 36.890625 -35.640625 C 36.347656 -35.972656 35.269531 -36.40625 33.65625 -36.9375 C 32.039062 -37.476562 30.410156 -37.75 28.765625 -37.75 C 26.148438 -37.75 23.804688 -37.328125 21.734375 -36.484375 C 19.660156 -35.640625 18.015625 -34.523438 16.796875 -33.140625 C 15.585938 -31.753906 14.664062 -30.265625 14.03125 -28.671875 C 13.394531 -27.078125 13.078125 -25.457031 13.078125 -23.8125 C 13.078125 -20.195312 14.429688 -16.957031 17.140625 -14.09375 C 19.859375 -11.226562 23.734375 -9.796875 28.765625 -9.796875 Z M 28.765625 -9.796875 "/></g></g></g><g fill="#f4f6fc" fill-opacity="1"><g transform="translate(326.612267, 248.982288)"><g><path d="M 30.671875 -47.546875 L 30.671875 -38.046875 L 14.296875 -38.046875 L 14.296875 -28.59375 L 29.96875 -28.59375 L 29.96875 -19.078125 L 14.296875 -19.078125 L 14.296875 -9.515625 L 30.671875 -9.515625 L 30.671875 0 L 3.453125 0 L 3.453125 -47.546875 Z M 30.671875 -47.546875 "/></g></g></g><g fill="#f4f6fc" fill-opacity="1"><g transform="translate(170.854635, 266.229095)"><g><path d="M 4.570312 -1.050781 L 1.953125 -1.050781 L 1.953125 -2.070312 L 4.347656 -2.070312 L 4.347656 -3.121094 L 1.953125 -3.121094 L 1.953125 -4.128906 L 4.496094 -4.128906 L 4.496094 -5.179688 L 0.601562 -5.179688 L 0.601562 0 L 4.570312 0 Z M 4.570312 -1.050781 "/></g></g></g><g fill="#f4f6fc" fill-opacity="1"><g transform="translate(176.063638, 266.229095)"><g><path d="M 2.417969 -5.285156 C 1.386719 -5.285156 0.457031 -4.722656 0.457031 -3.722656 C 0.457031 -2.6875 1.148438 -2.320312 2.328125 -2.027344 C 2.964844 -1.867188 3.160156 -1.636719 3.160156 -1.367188 C 3.160156 -1.082031 2.875 -0.886719 2.5 -0.886719 C 2.09375 -0.886719 1.695312 -1.097656 1.605469 -1.582031 L 0.253906 -1.582031 C 0.335938 -0.421875 1.222656 0.105469 2.535156 0.105469 C 3.582031 0.105469 4.570312 -0.421875 4.570312 -1.457031 C 4.570312 -2.25 4.105469 -2.820312 2.964844 -3.09375 C 2.109375 -3.296875 1.867188 -3.496094 1.867188 -3.828125 C 1.867188 -4.144531 2.078125 -4.292969 2.386719 -4.292969 C 2.828125 -4.292969 3.054688 -4.007812 3.113281 -3.582031 L 4.464844 -3.582031 C 4.351562 -4.539062 3.78125 -5.285156 2.417969 -5.285156 Z M 2.417969 -5.285156 "/></g></g></g><g fill="#f4f6fc" fill-opacity="1"><g transform="translate(181.175062, 266.229095)"><g><path d="M 4.820312 -4.128906 L 4.820312 -5.179688 L 0.105469 -5.179688 L 0.105469 -4.128906 L 1.785156 -4.128906 L 1.785156 0 L 3.136719 0 L 3.136719 -4.128906 Z M 4.820312 -4.128906 "/></g></g></g><g fill="#f4f6fc" fill-opacity="1"><g transform="translate(186.331525, 266.229095)"><g><path d="M 1.222656 -3.296875 L 1.34375 -5.515625 L 0.21875 -5.515625 L 0.335938 -3.296875 Z M 1.222656 -3.296875 "/></g></g></g><g fill="#f4f6fc" fill-opacity="1"><g transform="translate(188.395605, 266.229095)"><g><path d="M 2.542969 -1.050781 L 3.234375 -1.71875 C 4.234375 -2.679688 4.511719 -3.144531 4.511719 -3.753906 C 4.511719 -4.722656 3.835938 -5.300781 2.628906 -5.300781 C 1.359375 -5.300781 0.636719 -4.660156 0.527344 -3.519531 L 0.519531 -3.445312 L 1.867188 -3.445312 L 1.875 -3.519531 C 1.929688 -4.0625 2.125 -4.308594 2.515625 -4.308594 C 2.882812 -4.308594 3.101562 -4.089844 3.101562 -3.699219 C 3.101562 -3.203125 2.835938 -2.84375 2.0625 -2.117188 L 0.433594 -0.585938 L 0.433594 0 L 4.449219 0 L 4.449219 -1.050781 Z M 2.542969 -1.050781 "/></g></g></g><g fill="#f4f6fc" fill-opacity="1"><g transform="translate(193.77724, 266.229095)"><g><path d="M 3.8125 -5.179688 L 3.226562 -5.179688 C 2.84375 -5.179688 2.5 -5.074219 2.167969 -4.886719 L 0.886719 -4.152344 L 0.886719 -2.941406 L 2.460938 -3.769531 L 2.460938 0 L 3.8125 0 Z M 3.8125 -5.179688 "/></g></g></g><g fill="#f4f6fc" fill-opacity="1"><g transform="translate(199.158874, 266.229095)"><g><path d="M 2.542969 -1.050781 L 3.234375 -1.71875 C 4.234375 -2.679688 4.511719 -3.144531 4.511719 -3.753906 C 4.511719 -4.722656 3.835938 -5.300781 2.628906 -5.300781 C 1.359375 -5.300781 0.636719 -4.660156 0.527344 -3.519531 L 0.519531 -3.445312 L 1.867188 -3.445312 L 1.875 -3.519531 C 1.929688 -4.0625 2.125 -4.308594 2.515625 -4.308594 C 2.882812 -4.308594 3.101562 -4.089844 3.101562 -3.699219 C 3.101562 -3.203125 2.835938 -2.84375 2.0625 -2.117188 L 0.433594 -0.585938 L 0.433594 0 L 4.449219 0 L 4.449219 -1.050781 Z M 2.542969 -1.050781 "/></g></g></g><path fill="#ff914d" d="M 244.3125 151.664062 C 243.902344 152.835938 243.171875 153.964844 242.152344 154.945312 C 238.867188 158.109375 216.128906 162.21875 207.582031 163.667969 C 205.574219 164.011719 204.347656 164.207031 204.347656 164.207031 L 197.902344 155.0625 C 197.902344 155.0625 231.53125 141.007812 238.617188 142.894531 C 243.929688 144.308594 245.542969 148.175781 244.3125 151.664062 Z M 244.3125 151.664062 " fill-opacity="1" fill-rule="nonzero"/><path fill="#ff5757" d="M 244.3125 151.664062 C 243.902344 152.835938 243.171875 153.964844 242.152344 154.945312 C 238.867188 158.109375 216.128906 162.21875 207.582031 163.667969 C 207.441406 161.335938 207.226562 158.640625 207.226562 158.640625 C 207.226562 158.640625 234.71875 155.242188 240.847656 152.234375 C 241.867188 151.738281 243.066406 151.570312 244.3125 151.664062 Z M 244.3125 151.664062 " fill-opacity="1" fill-rule="nonzero"/><path fill="#2b2b2b" d="M 198.3125 155.179688 C 200.5 158.121094 202.617188 160.996094 204.695312 163.960938 L 204.277344 163.785156 C 208.226562 162.726562 212.226562 162 216.222656 161.261719 C 220.21875 160.507812 224.203125 159.710938 228.160156 158.804688 C 230.132812 158.351562 232.101562 157.867188 234.050781 157.332031 C 235.992188 156.792969 237.933594 156.207031 239.730469 155.4375 C 239.964844 155.347656 240.167969 155.234375 240.386719 155.132812 C 240.492188 155.078125 240.601562 155.03125 240.703125 154.972656 L 240.996094 154.796875 C 241.085938 154.738281 241.199219 154.6875 241.273438 154.621094 L 241.503906 154.4375 C 241.585938 154.390625 241.667969 154.300781 241.75 154.21875 C 241.828125 154.132812 241.917969 154.054688 241.992188 153.964844 C 242.617188 153.277344 243.136719 152.492188 243.472656 151.644531 C 243.816406 150.800781 243.964844 149.894531 243.898438 149.011719 C 243.832031 148.128906 243.515625 147.28125 243.027344 146.542969 C 242.523438 145.808594 241.832031 145.191406 241.039062 144.707031 C 240.242188 144.226562 239.351562 143.867188 238.425781 143.613281 C 238.03125 143.507812 237.566406 143.464844 237.09375 143.460938 C 236.621094 143.453125 236.132812 143.472656 235.644531 143.519531 C 234.667969 143.601562 233.679688 143.765625 232.695312 143.949219 C 230.726562 144.328125 228.761719 144.824219 226.8125 145.363281 C 224.863281 145.90625 222.921875 146.5 220.988281 147.121094 C 217.125 148.363281 213.28125 149.695312 209.464844 151.097656 C 207.554688 151.796875 205.648438 152.511719 203.75 153.242188 L 200.902344 154.339844 L 199.480469 154.894531 L 198.773438 155.175781 L 198.417969 155.316406 L 198.242188 155.386719 L 198.152344 155.421875 L 198.109375 155.441406 C 198.117188 155.4375 198.066406 155.460938 198.117188 155.4375 C 198.210938 155.390625 198.296875 155.273438 198.3125 155.179688 Z M 197.492188 154.945312 C 197.519531 154.84375 197.625 154.722656 197.730469 154.671875 L 197.78125 154.648438 L 197.824219 154.628906 L 197.914062 154.59375 L 198.089844 154.519531 L 198.441406 154.367188 L 199.144531 154.070312 L 200.558594 153.480469 L 203.386719 152.316406 C 205.277344 151.550781 207.175781 150.800781 209.074219 150.066406 C 212.882812 148.601562 216.710938 147.183594 220.585938 145.886719 C 222.527344 145.246094 224.472656 144.625 226.441406 144.054688 C 228.410156 143.488281 230.394531 142.960938 232.421875 142.550781 C 233.4375 142.351562 234.457031 142.167969 235.511719 142.066406 C 236.035156 142.011719 236.570312 141.984375 237.113281 141.984375 C 237.65625 141.988281 238.214844 142.023438 238.808594 142.171875 C 239.847656 142.445312 240.871094 142.84375 241.824219 143.402344 C 242.773438 143.96875 243.648438 144.71875 244.308594 145.664062 C 244.957031 146.609375 245.378906 147.734375 245.464844 148.882812 C 245.554688 150.03125 245.363281 151.1875 244.945312 152.230469 C 244.53125 153.28125 243.910156 154.222656 243.171875 155.042969 C 243.082031 155.148438 242.980469 155.242188 242.882812 155.339844 C 242.789062 155.4375 242.699219 155.535156 242.566406 155.636719 L 242.203125 155.925781 C 242.078125 156.023438 241.957031 156.082031 241.835938 156.160156 L 241.472656 156.378906 C 241.351562 156.445312 241.230469 156.503906 241.109375 156.5625 C 240.867188 156.679688 240.625 156.8125 240.378906 156.90625 C 238.433594 157.746094 236.464844 158.339844 234.488281 158.898438 C 232.507812 159.449219 230.523438 159.945312 228.53125 160.410156 C 224.546875 161.335938 220.546875 162.152344 216.539062 162.921875 C 212.53125 163.695312 208.507812 164.386719 204.414062 164.628906 L 204.148438 164.671875 L 203.996094 164.453125 C 201.777344 161.316406 199.601562 158.097656 197.492188 154.945312 Z M 197.492188 154.945312 " fill-opacity="1" fill-rule="nonzero"/><path fill="#ff914d" d="M 243.90625 154.894531 C 238.964844 160.066406 233.074219 157.144531 233.074219 157.144531 L 232.511719 156.644531 C 232.023438 156.207031 231.566406 155.753906 231.132812 155.28125 C 228.339844 152.210938 226.75 148.382812 226.671875 144.433594 C 226.671875 144.433594 232.332031 139.519531 238.910156 140.097656 C 239.863281 140.179688 240.753906 140.441406 241.558594 140.847656 C 246.285156 143.21875 248.132812 150.46875 243.90625 154.894531 Z M 243.90625 154.894531 " fill-opacity="1" fill-rule="nonzero"/><path fill="#ff5757" d="M 243.90625 154.894531 C 238.964844 160.066406 233.074219 157.144531 233.074219 157.144531 L 232.511719 156.644531 C 232.023438 156.207031 231.566406 155.753906 231.132812 155.28125 L 231.335938 154.855469 C 231.335938 154.855469 235.625 155.792969 240.023438 153.289062 C 243.644531 151.230469 243.171875 144.777344 241.558594 140.847656 C 246.285156 143.21875 248.132812 150.46875 243.90625 154.894531 Z M 243.90625 154.894531 " fill-opacity="1" fill-rule="nonzero"/><path fill="#2b2b2b" d="M 226.949219 144.753906 C 227.246094 144.09375 227.03125 144.574219 227.097656 144.425781 L 227.097656 144.453125 L 227.101562 144.480469 L 227.101562 144.535156 L 227.109375 144.644531 L 227.117188 144.867188 C 227.128906 145.015625 227.128906 145.167969 227.144531 145.3125 C 227.179688 145.609375 227.199219 145.90625 227.242188 146.203125 C 227.328125 146.789062 227.4375 147.375 227.589844 147.953125 C 227.890625 149.105469 228.320312 150.222656 228.867188 151.28125 C 229.414062 152.339844 230.074219 153.34375 230.828125 154.265625 C 231.207031 154.730469 231.609375 155.171875 232.03125 155.597656 C 232.457031 156.015625 232.898438 156.417969 233.359375 156.828125 L 233.265625 156.761719 C 233.652344 156.886719 234.09375 157.003906 234.519531 157.082031 C 234.949219 157.167969 235.382812 157.222656 235.816406 157.257812 C 236.679688 157.324219 237.539062 157.28125 238.375 157.136719 C 239.21875 157 240.011719 156.6875 240.777344 156.335938 L 241.332031 156.019531 L 241.609375 155.859375 L 241.867188 155.671875 L 242.382812 155.289062 C 242.472656 155.230469 242.550781 155.160156 242.628906 155.082031 L 242.863281 154.863281 C 244.179688 153.742188 245.042969 152.222656 245.382812 150.558594 C 245.738281 148.902344 245.53125 147.125 244.890625 145.542969 C 244.234375 143.972656 243.148438 142.546875 241.699219 141.675781 C 240.980469 141.242188 240.183594 140.925781 239.351562 140.789062 C 239.140625 140.765625 238.9375 140.714844 238.71875 140.710938 L 238.0625 140.679688 L 237.730469 140.664062 C 237.621094 140.660156 237.511719 140.671875 237.402344 140.675781 L 236.742188 140.707031 C 233.222656 140.988281 229.785156 142.59375 226.949219 144.753906 Z M 226.390625 144.109375 C 227.847656 142.863281 229.441406 141.875 231.15625 141.066406 C 231.589844 140.871094 232.023438 140.671875 232.46875 140.511719 C 232.910156 140.332031 233.367188 140.195312 233.820312 140.054688 C 234.046875 139.976562 234.28125 139.925781 234.511719 139.867188 L 235.210938 139.703125 L 235.921875 139.59375 C 236.160156 139.5625 236.394531 139.511719 236.640625 139.503906 L 237.359375 139.457031 C 237.480469 139.449219 237.601562 139.4375 237.722656 139.4375 L 238.085938 139.445312 L 238.808594 139.46875 C 239.050781 139.46875 239.304688 139.519531 239.550781 139.542969 C 240.542969 139.691406 241.503906 140.046875 242.371094 140.546875 C 243.238281 141.050781 244.007812 141.714844 244.644531 142.476562 C 245.285156 143.234375 245.808594 144.089844 246.183594 145.007812 C 246.9375 146.835938 247.191406 148.882812 246.792969 150.84375 C 246.597656 151.824219 246.246094 152.773438 245.746094 153.644531 C 245.25 154.511719 244.59375 155.308594 243.859375 155.945312 L 243.589844 156.195312 C 243.503906 156.285156 243.414062 156.363281 243.308594 156.4375 L 242.714844 156.878906 L 242.417969 157.101562 L 242.09375 157.289062 L 241.449219 157.660156 C 241.222656 157.773438 240.992188 157.863281 240.761719 157.960938 L 240.417969 158.105469 C 240.300781 158.148438 240.179688 158.179688 240.058594 158.21875 C 239.820312 158.289062 239.582031 158.363281 239.339844 158.425781 L 238.601562 158.550781 C 237.617188 158.6875 236.617188 158.667969 235.652344 158.496094 C 235.167969 158.40625 234.695312 158.289062 234.234375 158.128906 C 233.769531 157.972656 233.335938 157.785156 232.882812 157.527344 L 232.820312 157.492188 L 232.789062 157.460938 C 232.335938 157.0625 231.871094 156.640625 231.425781 156.199219 C 230.984375 155.753906 230.5625 155.292969 230.167969 154.804688 C 229.375 153.835938 228.679688 152.785156 228.105469 151.671875 C 227.53125 150.558594 227.078125 149.378906 226.761719 148.164062 C 226.601562 147.554688 226.484375 146.9375 226.394531 146.316406 C 226.347656 146.007812 226.324219 145.691406 226.289062 145.382812 C 226.277344 145.226562 226.273438 145.066406 226.265625 144.910156 L 226.253906 144.675781 L 226.246094 144.554688 L 226.246094 144.496094 L 226.242188 144.46875 L 226.242188 144.441406 C 226.308594 144.296875 226.097656 144.773438 226.390625 144.109375 Z M 226.390625 144.109375 " fill-opacity="1" fill-rule="nonzero"/><path fill="#ff914d" d="M 176.546875 148.855469 L 169.835938 152.980469 L 167.019531 154.710938 C 167.019531 154.710938 150.152344 144.0625 141.21875 136.722656 C 138.457031 134.457031 136.457031 132.503906 135.9375 131.277344 C 133.753906 126.082031 136.6875 120.53125 143.941406 121.597656 C 151.199219 122.664062 176.546875 148.855469 176.546875 148.855469 Z M 176.546875 148.855469 " fill-opacity="1" fill-rule="nonzero"/><path fill="#ff5757" d="M 169.835938 152.980469 L 167.019531 154.710938 C 167.019531 154.710938 150.152344 144.0625 141.21875 136.722656 L 146.210938 135.804688 C 146.210938 135.800781 162.03125 147.875 169.835938 152.980469 Z M 169.835938 152.980469 " fill-opacity="1" fill-rule="nonzero"/><path fill="#2b2b2b" d="M 176.972656 148.90625 C 173.789062 150.96875 170.515625 153.070312 167.242188 155.074219 L 167.015625 155.214844 L 166.789062 155.070312 C 163.320312 152.921875 159.898438 150.710938 156.496094 148.460938 C 153.09375 146.210938 149.726562 143.90625 146.421875 141.503906 C 144.769531 140.304688 143.132812 139.078125 141.527344 137.800781 C 139.925781 136.519531 138.34375 135.210938 136.886719 133.691406 C 136.699219 133.507812 136.53125 133.296875 136.351562 133.09375 C 136.265625 132.992188 136.175781 132.894531 136.089844 132.789062 L 135.84375 132.449219 C 135.765625 132.332031 135.679688 132.234375 135.605469 132.101562 L 135.386719 131.699219 C 135.308594 131.5625 135.261719 131.4375 135.214844 131.308594 C 135.167969 131.179688 135.109375 131.058594 135.070312 130.925781 C 134.714844 129.894531 134.511719 128.792969 134.546875 127.679688 C 134.566406 126.570312 134.839844 125.445312 135.367188 124.441406 C 135.890625 123.429688 136.707031 122.570312 137.664062 121.960938 C 138.628906 121.355469 139.714844 121.003906 140.804688 120.851562 C 141.898438 120.707031 142.988281 120.742188 144.050781 120.894531 C 144.648438 120.984375 145.175781 121.167969 145.679688 121.378906 C 146.179688 121.589844 146.660156 121.820312 147.121094 122.078125 C 148.046875 122.578125 148.921875 123.144531 149.777344 123.722656 C 153.183594 126.066406 156.3125 128.707031 159.375 131.417969 C 162.429688 134.132812 165.414062 136.921875 168.3125 139.792969 C 169.765625 141.226562 171.21875 142.65625 172.636719 144.125 L 174.757812 146.324219 L 175.8125 147.433594 L 176.335938 147.996094 L 176.59375 148.273438 L 176.726562 148.414062 L 176.789062 148.484375 L 176.824219 148.519531 L 176.859375 148.5625 C 176.941406 148.648438 176.984375 148.804688 176.972656 148.90625 Z M 176.125 148.800781 C 176.097656 148.894531 176.132812 149.035156 176.199219 149.109375 C 176.238281 149.152344 176.203125 149.113281 176.207031 149.117188 L 176.171875 149.085938 L 176.105469 149.019531 L 174.054688 147.027344 L 171.855469 144.910156 C 170.378906 143.511719 168.917969 142.09375 167.433594 140.707031 C 164.460938 137.929688 161.480469 135.164062 158.425781 132.492188 C 156.898438 131.15625 155.351562 129.847656 153.78125 128.570312 C 152.210938 127.292969 150.613281 126.050781 148.960938 124.914062 C 148.132812 124.351562 147.292969 123.804688 146.433594 123.335938 C 146.003906 123.097656 145.566406 122.886719 145.128906 122.699219 C 144.691406 122.515625 144.246094 122.367188 143.839844 122.300781 C 142.886719 122.164062 141.925781 122.132812 140.996094 122.253906 C 140.066406 122.378906 139.179688 122.667969 138.410156 123.148438 C 137.652344 123.632812 137.015625 124.292969 136.597656 125.09375 C 136.179688 125.890625 135.945312 126.792969 135.929688 127.71875 C 135.898438 128.644531 136.0625 129.582031 136.367188 130.472656 C 136.402344 130.585938 136.453125 130.695312 136.492188 130.804688 C 136.535156 130.917969 136.574219 131.03125 136.628906 131.113281 L 136.773438 131.386719 C 136.820312 131.476562 136.902344 131.570312 136.964844 131.664062 L 137.164062 131.945312 C 137.234375 132.039062 137.316406 132.128906 137.394531 132.222656 C 137.550781 132.40625 137.699219 132.59375 137.875 132.769531 C 139.222656 134.203125 140.769531 135.519531 142.335938 136.796875 C 143.90625 138.070312 145.519531 139.304688 147.148438 140.511719 C 153.6875 145.328125 160.4375 149.898438 167.246094 154.347656 L 166.796875 154.34375 C 169.871094 152.445312 172.953125 150.640625 176.125 148.800781 Z M 176.125 148.800781 " fill-opacity="1" fill-rule="nonzero"/><path fill="#ff914d" d="M 154.3125 127.730469 C 152.722656 131.238281 149.859375 134.070312 146.214844 135.804688 C 145.542969 136.121094 144.847656 136.402344 144.125 136.644531 L 143.410156 136.878906 C 143.410156 136.878906 136.847656 137.242188 134.347656 130.535156 C 133.066406 127.09375 134.195312 123.585938 136.441406 121.257812 C 138.578125 119.046875 141.726562 117.90625 144.78125 118.914062 C 151.050781 120.980469 154.3125 127.730469 154.3125 127.730469 Z M 154.3125 127.730469 " fill-opacity="1" fill-rule="nonzero"/><path fill="#ff5757" d="M 147.207031 135.082031 L 146.214844 135.800781 C 145.542969 136.121094 144.847656 136.398438 144.125 136.644531 L 143.410156 136.878906 C 143.410156 136.878906 136.847656 137.242188 134.347656 130.53125 C 133.066406 127.09375 134.195312 123.582031 136.441406 121.257812 C 135.917969 124.207031 134.863281 134.964844 147.207031 135.082031 Z M 147.207031 135.082031 " fill-opacity="1" fill-rule="nonzero"/><path fill="#2b2b2b" d="M 142.5 118.976562 C 140.4375 118.976562 138.355469 119.882812 136.738281 121.566406 C 134.390625 124.003906 133.628906 127.382812 134.746094 130.386719 C 137.011719 136.460938 142.667969 136.476562 143.332031 136.457031 L 143.988281 136.234375 C 148.410156 134.757812 151.988281 131.667969 153.835938 127.738281 C 153.273438 126.675781 150.109375 121.117188 144.648438 119.316406 C 143.949219 119.089844 143.226562 118.976562 142.5 118.976562 Z M 143.28125 137.3125 C 142.257812 137.3125 136.3125 137.03125 133.945312 130.683594 C 132.710938 127.371094 133.546875 123.648438 136.121094 120.972656 C 138.542969 118.460938 141.910156 117.515625 144.914062 118.507812 C 151.285156 120.605469 154.5625 127.261719 154.699219 127.542969 L 154.785156 127.722656 L 154.703125 127.90625 C 152.785156 132.136719 148.976562 135.46875 144.261719 137.046875 L 143.492188 137.304688 L 143.433594 137.308594 C 143.429688 137.308594 143.375 137.3125 143.28125 137.3125 Z M 143.28125 137.3125 " fill-opacity="1" fill-rule="nonzero"/><path fill="#ff914d" d="M 206.101562 230.214844 L 196.105469 232.050781 C 195.132812 232.230469 194.167969 232.164062 193.289062 231.890625 C 191.496094 231.34375 190.035156 229.953125 189.496094 228.085938 C 189.476562 228.023438 189.457031 227.957031 189.441406 227.890625 L 183.691406 204.898438 C 183.066406 202.394531 173.953125 194.042969 173.851562 190.164062 L 174.40625 190.0625 L 179.738281 189.082031 L 177.207031 178.957031 C 176.40625 175.734375 178.625 172.507812 182.003906 171.984375 L 186.269531 171.332031 C 188.996094 170.910156 191.632812 172.410156 192.574219 174.921875 L 209.777344 220.640625 L 210.542969 222.675781 C 211.78125 225.957031 209.660156 229.5625 206.101562 230.214844 Z M 206.101562 230.214844 " fill-opacity="1" fill-rule="nonzero"/><path fill="#ff5757" d="M 195.472656 221.816406 L 193.289062 231.890625 C 191.496094 231.34375 190.035156 229.953125 189.496094 228.085938 C 189.476562 228.023438 189.457031 227.957031 189.441406 227.890625 L 183.691406 204.898438 C 183.066406 202.394531 173.953125 194.042969 173.851562 190.164062 L 174.40625 190.0625 L 185.703125 195.839844 Z M 195.472656 221.816406 " fill-opacity="1" fill-rule="nonzero"/><g clip-path="url(#df317bb0f4)"><path fill="#2b2b2b" d="M 211.371094 222.359375 C 211.667969 223.15625 211.8125 224.011719 211.78125 224.867188 C 211.75 225.71875 211.546875 226.5625 211.195312 227.335938 C 210.488281 228.890625 209.152344 230.121094 207.578125 230.753906 C 207.378906 230.828125 207.183594 230.902344 206.980469 230.96875 L 206.363281 231.117188 C 205.980469 231.199219 205.636719 231.257812 205.273438 231.332031 L 203.109375 231.742188 L 198.789062 232.558594 L 196.628906 232.972656 C 196.449219 233.003906 196.277344 233.039062 196.054688 233.070312 C 195.84375 233.097656 195.632812 233.136719 195.417969 233.140625 C 195.203125 233.148438 194.988281 233.164062 194.773438 233.148438 C 194.558594 233.140625 194.34375 233.136719 194.132812 233.101562 C 192.425781 232.898438 190.800781 232.019531 189.707031 230.667969 C 189.566406 230.503906 189.449219 230.316406 189.320312 230.140625 C 189.203125 229.960938 189.097656 229.769531 188.988281 229.582031 C 188.890625 229.386719 188.804688 229.1875 188.714844 228.988281 L 188.503906 228.386719 C 188.429688 228.132812 188.394531 227.972656 188.347656 227.792969 L 188.214844 227.261719 L 187.945312 226.195312 L 186.871094 221.929688 L 184.765625 213.390625 L 182.714844 204.980469 C 182.625 204.753906 182.453125 204.453125 182.28125 204.175781 C 182.097656 203.890625 181.902344 203.601562 181.691406 203.316406 C 181.277344 202.742188 180.832031 202.167969 180.382812 201.601562 C 179.480469 200.457031 178.558594 199.3125 177.65625 198.140625 C 176.761719 196.964844 175.871094 195.773438 175.089844 194.492188 C 174.695312 193.851562 174.320312 193.191406 174.007812 192.488281 C 173.695312 191.789062 173.4375 191.027344 173.425781 190.175781 L 173.394531 189.8125 L 173.777344 189.742188 L 179.660156 188.660156 L 179.324219 189.183594 L 176.738281 179.117188 C 176.496094 178.214844 176.476562 177.234375 176.679688 176.3125 C 176.882812 175.386719 177.304688 174.515625 177.890625 173.777344 C 178.472656 173.035156 179.230469 172.425781 180.082031 172.015625 C 180.511719 171.8125 180.957031 171.648438 181.417969 171.539062 C 181.894531 171.425781 182.308594 171.371094 182.738281 171.300781 L 185.300781 170.890625 C 185.738281 170.824219 186.136719 170.746094 186.625 170.699219 C 186.863281 170.675781 187.101562 170.675781 187.339844 170.671875 C 187.574219 170.6875 187.816406 170.6875 188.050781 170.726562 C 189.945312 170.953125 191.714844 172.09375 192.699219 173.753906 C 192.8125 173.96875 192.941406 174.175781 193.027344 174.398438 L 193.167969 174.726562 L 193.285156 175.03125 L 193.746094 176.242188 L 194.675781 178.671875 L 196.53125 183.527344 Z M 209.714844 222.984375 L 195.277344 184 L 193.472656 179.125 L 192.570312 176.691406 L 192.117188 175.472656 L 192.007812 175.167969 L 191.894531 174.898438 C 191.828125 174.71875 191.722656 174.554688 191.636719 174.382812 C 190.867188 173.050781 189.445312 172.101562 187.894531 171.902344 C 187.703125 171.863281 187.507812 171.867188 187.3125 171.847656 C 187.121094 171.851562 186.921875 171.847656 186.730469 171.863281 C 186.355469 171.894531 185.902344 171.972656 185.480469 172.035156 L 182.910156 172.414062 C 182.484375 172.476562 182.039062 172.535156 181.671875 172.621094 C 181.289062 172.703125 180.914062 172.835938 180.558594 173 C 179.84375 173.332031 179.210938 173.832031 178.714844 174.441406 C 177.714844 175.660156 177.300781 177.335938 177.699219 178.878906 L 180.15625 188.976562 L 180.261719 189.425781 L 179.816406 189.503906 L 173.929688 190.585938 L 174.28125 190.152344 C 174.355469 190.769531 174.640625 191.40625 174.96875 192.019531 C 175.304688 192.628906 175.703125 193.222656 176.128906 193.796875 C 176.980469 194.949219 177.90625 196.066406 178.859375 197.164062 L 181.746094 200.484375 C 182.222656 201.046875 182.699219 201.617188 183.164062 202.214844 C 183.398438 202.511719 183.625 202.824219 183.851562 203.148438 C 184.070312 203.488281 184.292969 203.8125 184.484375 204.261719 C 184.53125 204.375 184.574219 204.515625 184.613281 204.640625 L 184.6875 204.914062 L 184.824219 205.449219 L 185.105469 206.511719 L 185.660156 208.640625 L 186.746094 212.90625 L 188.910156 221.4375 L 189.96875 225.707031 L 190.484375 227.78125 C 190.65625 228.386719 190.929688 228.902344 191.308594 229.375 C 192.058594 230.304688 193.191406 230.933594 194.394531 231.09375 C 194.542969 231.121094 194.695312 231.125 194.847656 231.136719 C 194.996094 231.152344 195.148438 231.136719 195.300781 231.132812 C 195.453125 231.136719 195.605469 231.105469 195.757812 231.089844 C 195.898438 231.074219 196.089844 231.039062 196.269531 231.007812 L 198.433594 230.621094 L 202.765625 229.851562 L 204.929688 229.46875 C 205.285156 229.402344 205.664062 229.339844 206 229.273438 L 206.453125 229.167969 C 206.601562 229.121094 206.746094 229.066406 206.890625 229.015625 C 208.039062 228.566406 209.023438 227.6875 209.546875 226.566406 C 210.078125 225.449219 210.136719 224.148438 209.714844 222.984375 Z M 209.714844 222.984375 " fill-opacity="1" fill-rule="nonzero"/></g><path fill="#ff914d" d="M 181.980469 184.644531 L 178.871094 192.886719 C 177.960938 193.609375 176.3125 194.648438 174.402344 195.808594 C 169.90625 198.519531 163.945312 201.859375 162.636719 203.109375 L 146.234375 218.761719 L 145.492188 219.46875 C 145.15625 219.789062 144.796875 220.058594 144.410156 220.277344 C 142.300781 221.476562 139.542969 221.1875 137.636719 219.425781 L 130.164062 212.53125 C 127.511719 210.078125 127.644531 205.902344 130.445312 203.78125 L 131.492188 202.992188 L 171.148438 173.019531 C 173.285156 171.402344 176.316406 171.542969 178.398438 173.351562 L 181.652344 176.1875 C 184.230469 178.433594 184.378906 182.351562 181.980469 184.644531 Z M 181.980469 184.644531 " fill-opacity="1" fill-rule="nonzero"/><path fill="#f6f4f1" d="M 154.875 188.984375 L 135.902344 202.464844 L 133.898438 202.152344 L 132.828125 201.980469 L 131.753906 201.8125 L 153.15625 185.753906 L 153.8125 186.988281 Z M 154.875 188.984375 " fill-opacity="1" fill-rule="nonzero"/><path fill="#ff5757" d="M 175.105469 194.152344 C 175.09375 194.246094 174.828125 194.847656 174.398438 195.808594 C 169.90625 198.519531 163.941406 201.859375 162.632812 203.109375 L 146.234375 218.761719 L 145.492188 219.46875 C 145.15625 219.789062 144.796875 220.058594 144.410156 220.277344 L 145.128906 208.382812 L 165.25 192.917969 C 165.253906 192.917969 175.210938 193.539062 175.105469 194.152344 Z M 175.105469 194.152344 " fill-opacity="1" fill-rule="nonzero"/><path fill="#2b2b2b" d="M 181.609375 184.417969 L 181.582031 184.492188 L 178.527344 192.636719 C 178.386719 192.71875 178.253906 192.796875 178.121094 192.882812 L 177.925781 193.015625 L 177.6875 193.160156 C 177.375 193.355469 177.0625 193.554688 176.742188 193.746094 C 176.109375 194.132812 175.457031 194.503906 174.8125 194.878906 C 174.808594 194.878906 174.808594 194.878906 174.808594 194.878906 L 170.882812 197.09375 C 169.574219 197.824219 168.265625 198.574219 166.957031 199.332031 C 166.304688 199.703125 165.65625 200.09375 165.007812 200.488281 C 164.359375 200.886719 163.714844 201.289062 163.070312 201.734375 L 162.585938 202.082031 L 162.085938 202.492188 L 161.261719 203.265625 L 156.351562 207.929688 L 149.832031 214.167969 L 146.574219 217.289062 L 144.941406 218.847656 C 144.792969 218.988281 144.636719 219.125 144.472656 219.242188 C 144.125 219.507812 143.742188 219.71875 143.328125 219.867188 C 142.125 220.320312 140.742188 220.261719 139.558594 219.726562 C 139.410156 219.664062 139.269531 219.585938 139.128906 219.507812 C 138.984375 219.433594 138.851562 219.335938 138.71875 219.242188 C 138.578125 219.160156 138.460938 219.050781 138.332031 218.945312 C 138.214844 218.851562 138.074219 218.71875 137.933594 218.589844 L 136.273438 217.0625 L 132.957031 214.007812 L 131.296875 212.476562 C 130.710938 211.945312 130.257812 211.527344 129.898438 210.976562 C 129.160156 209.902344 128.902344 208.523438 129.152344 207.261719 C 129.277344 206.625 129.527344 206.023438 129.894531 205.492188 C 129.996094 205.367188 130.074219 205.226562 130.183594 205.113281 C 130.296875 204.996094 130.402344 204.875 130.515625 204.761719 L 130.882812 204.449219 C 131.019531 204.339844 131.179688 204.222656 131.328125 204.109375 L 133.898438 202.152344 L 153.8125 186.988281 L 160.046875 182.242188 L 167.21875 176.761719 L 170.800781 174.019531 L 171.25 173.675781 L 171.472656 173.507812 L 171.683594 173.359375 C 171.816406 173.257812 171.964844 173.171875 172.109375 173.089844 C 172.253906 173 172.410156 172.941406 172.5625 172.867188 C 173.179688 172.59375 173.859375 172.464844 174.535156 172.460938 C 175.214844 172.460938 175.898438 172.582031 176.53125 172.839844 C 176.84375 172.96875 177.152344 173.121094 177.4375 173.308594 C 177.582031 173.402344 177.726562 173.496094 177.855469 173.609375 L 178.058594 173.769531 L 178.273438 173.953125 L 179.984375 175.421875 L 180.839844 176.160156 L 181.269531 176.527344 C 181.40625 176.648438 181.519531 176.765625 181.648438 176.886719 C 182.617188 177.863281 183.203125 179.21875 183.214844 180.605469 L 183.214844 180.695312 C 183.214844 182.046875 182.660156 183.390625 181.683594 184.335938 Z M 182.367188 176.183594 C 182.222656 176.042969 182.074219 175.886719 181.929688 175.761719 L 181.507812 175.386719 L 180.660156 174.640625 L 178.96875 173.148438 L 178.757812 172.964844 L 178.519531 172.769531 C 178.367188 172.636719 178.195312 172.519531 178.023438 172.40625 C 177.683594 172.175781 177.316406 171.992188 176.941406 171.828125 C 176.183594 171.507812 175.359375 171.347656 174.535156 171.339844 C 173.710938 171.335938 172.878906 171.484375 172.113281 171.808594 C 171.925781 171.894531 171.734375 171.96875 171.554688 172.078125 C 171.371094 172.175781 171.191406 172.277344 171.023438 172.398438 L 170.769531 172.574219 L 170.542969 172.746094 L 170.089844 173.082031 L 166.472656 175.777344 L 159.246094 181.183594 L 153.15625 185.753906 L 131.753906 201.8125 L 130.375 202.847656 C 130.21875 202.960938 130.078125 203.066406 129.917969 203.195312 L 129.425781 203.613281 C 129.277344 203.761719 129.128906 203.921875 128.984375 204.078125 C 128.835938 204.238281 128.722656 204.421875 128.589844 204.59375 C 128.097656 205.300781 127.757812 206.109375 127.59375 206.949219 C 127.253906 208.628906 127.597656 210.441406 128.558594 211.859375 C 128.664062 212.046875 128.8125 212.203125 128.9375 212.375 C 129.0625 212.546875 129.210938 212.703125 129.359375 212.851562 L 129.582031 213.082031 C 129.65625 213.15625 129.71875 213.214844 129.792969 213.277344 L 130.207031 213.664062 L 131.863281 215.195312 L 135.171875 218.257812 L 136.828125 219.792969 C 136.964844 219.917969 137.097656 220.042969 137.269531 220.1875 C 137.433594 220.324219 137.597656 220.464844 137.777344 220.578125 C 137.949219 220.703125 138.125 220.828125 138.3125 220.929688 C 138.5 221.03125 138.6875 221.136719 138.882812 221.21875 C 140.445312 221.929688 142.28125 222.019531 143.90625 221.414062 C 144.714844 221.117188 145.46875 220.640625 146.085938 220.046875 L 150.984375 215.382812 L 157.523438 209.160156 L 160.78125 206.039062 L 162.410156 204.476562 L 163.21875 203.691406 L 163.582031 203.382812 L 164.015625 203.066406 C 165.1875 202.222656 166.484375 201.441406 167.746094 200.644531 L 171.585938 198.28125 C 172.863281 197.488281 174.144531 196.695312 175.410156 195.863281 C 176.042969 195.453125 176.671875 195.035156 177.296875 194.601562 C 177.609375 194.390625 177.921875 194.160156 178.226562 193.933594 L 178.457031 193.765625 L 178.714844 193.5625 C 178.882812 193.421875 179.050781 193.277344 179.214844 193.136719 L 182.34375 184.882812 C 183.488281 183.78125 184.152344 182.191406 184.144531 180.597656 C 184.160156 178.972656 183.503906 177.351562 182.367188 176.183594 Z M 182.367188 176.183594 " fill-opacity="1" fill-rule="nonzero"/><path fill="#ff5757" d="M 150.046875 182.765625 L 149.425781 185.550781 C 149.15625 186.753906 149.832031 187.96875 150.996094 188.367188 C 155.4375 189.902344 166.269531 193.519531 174.976562 195.460938 C 183.710938 197.410156 195.515625 199.058594 200.347656 199.699219 C 201.59375 199.863281 202.757812 199.050781 203.03125 197.824219 L 204.183594 192.65625 C 204.484375 191.308594 203.601562 189.984375 202.242188 189.742188 L 152.839844 180.90625 C 151.558594 180.675781 150.328125 181.496094 150.046875 182.765625 Z M 150.046875 182.765625 " fill-opacity="1" fill-rule="nonzero"/><path fill="#ff914d" d="M 150.175781 181.457031 L 149.554688 184.238281 C 149.285156 185.445312 149.960938 186.65625 151.128906 187.058594 C 155.570312 188.59375 166.402344 192.210938 175.109375 194.152344 C 183.839844 196.101562 195.644531 197.75 200.476562 198.390625 C 201.722656 198.554688 202.886719 197.742188 203.160156 196.511719 L 204.3125 191.347656 C 204.613281 190 203.730469 188.671875 202.375 188.429688 L 152.96875 179.597656 C 151.691406 179.367188 150.457031 180.1875 150.175781 181.457031 Z M 150.175781 181.457031 " fill-opacity="1" fill-rule="nonzero"/><path fill="#2b2b2b" d="M 152.40625 181.292969 C 151.488281 181.292969 150.667969 181.929688 150.460938 182.859375 L 149.839844 185.640625 C 149.621094 186.632812 150.175781 187.632812 151.136719 187.964844 C 155.429688 189.445312 166.347656 193.097656 175.070312 195.042969 C 183.820312 196.996094 195.703125 198.652344 200.402344 199.273438 C 201.433594 199.410156 202.386719 198.746094 202.613281 197.730469 L 203.765625 192.5625 C 203.886719 192.027344 203.785156 191.476562 203.476562 191.019531 C 203.175781 190.5625 202.707031 190.257812 202.167969 190.160156 L 152.761719 181.328125 C 152.644531 181.304688 152.523438 181.292969 152.40625 181.292969 Z M 200.675781 200.148438 C 200.546875 200.148438 200.417969 200.140625 200.292969 200.121094 C 195.578125 199.5 183.667969 197.835938 174.886719 195.878906 C 166.121094 193.921875 155.160156 190.257812 150.859375 188.773438 C 149.488281 188.296875 148.691406 186.871094 149.007812 185.453125 L 149.628906 182.671875 C 149.960938 181.171875 151.402344 180.210938 152.914062 180.480469 L 202.320312 189.316406 C 203.089844 189.453125 203.757812 189.890625 204.191406 190.542969 C 204.628906 191.199219 204.773438 191.980469 204.601562 192.746094 L 203.449219 197.914062 C 203.152344 199.242188 201.996094 200.148438 200.675781 200.148438 Z M 200.675781 200.148438 " fill-opacity="1" fill-rule="nonzero"/><path fill="#ff914d" d="M 208.539062 189.722656 C 207.445312 194.300781 202.066406 195.792969 196.035156 195.9375 C 187.105469 196.144531 176.75 193.414062 176.75 193.414062 C 176.75 193.414062 166.210938 191.488281 158.222656 187.5 C 155.050781 185.917969 152.273438 184.011719 150.722656 181.769531 C 149.636719 180.199219 149.148438 178.464844 149.542969 176.5625 C 151.355469 167.8125 165.160156 146.890625 171.546875 137.546875 C 173.503906 134.679688 174.765625 132.902344 174.765625 132.902344 L 189.304688 137.121094 L 204.261719 139.480469 C 204.261719 139.480469 211.253906 178.363281 208.539062 189.722656 Z M 208.539062 189.722656 " fill-opacity="1" fill-rule="nonzero"/><path fill="#ff5757" d="M 178.738281 145.46875 C 178.738281 145.46875 176.414062 147.394531 174.398438 150.691406 C 172.378906 153.992188 163.921875 161.554688 160.679688 162.996094 C 157.441406 164.441406 150.308594 177.984375 150.910156 180.867188 C 150.996094 181.273438 150.917969 181.566406 150.722656 181.769531 C 149.636719 180.195312 149.148438 178.460938 149.542969 176.5625 C 151.355469 167.808594 165.160156 146.886719 171.546875 137.546875 Z M 178.738281 145.46875 " fill-opacity="1" fill-rule="nonzero"/><path fill="#2b2b2b" d="M 207.609375 189.5 C 208.015625 187.570312 208.144531 185.488281 208.214844 183.421875 C 208.273438 181.34375 208.238281 179.253906 208.15625 177.160156 C 207.980469 172.972656 207.628906 168.78125 207.207031 164.59375 C 206.777344 160.410156 206.269531 156.226562 205.703125 152.054688 C 205.140625 147.882812 204.523438 143.710938 203.84375 139.558594 L 204.199219 139.90625 L 189.238281 137.546875 L 189.210938 137.542969 L 189.1875 137.535156 L 174.648438 133.3125 L 175.113281 133.148438 C 171.070312 138.964844 167.152344 144.878906 163.386719 150.875 C 161.507812 153.878906 159.667969 156.90625 157.902344 159.972656 C 156.148438 163.042969 154.4375 166.140625 152.9375 169.324219 C 152.1875 170.914062 151.472656 172.523438 150.90625 174.164062 C 150.753906 174.574219 150.644531 174.988281 150.507812 175.402344 C 150.382812 175.8125 150.300781 176.226562 150.195312 176.640625 C 150.042969 177.433594 150.035156 178.230469 150.199219 179.007812 C 150.550781 180.558594 151.5625 181.949219 152.796875 183.089844 C 154.035156 184.242188 155.480469 185.207031 157 186.046875 C 158.515625 186.890625 160.109375 187.609375 161.726562 188.277344 C 163.351562 188.929688 165.007812 189.507812 166.683594 190.042969 C 168.359375 190.574219 170.054688 191.050781 171.757812 191.480469 C 173.460938 191.910156 175.191406 192.304688 176.894531 192.625 L 176.921875 192.632812 L 176.957031 192.640625 C 178.316406 192.980469 179.726562 193.28125 181.121094 193.554688 C 182.523438 193.828125 183.929688 194.070312 185.339844 194.277344 C 188.15625 194.699219 190.992188 194.980469 193.820312 195.046875 C 195.234375 195.074219 196.644531 195.058594 198.035156 194.929688 C 199.429688 194.808594 200.804688 194.597656 202.117188 194.230469 C 203.417969 193.855469 204.65625 193.3125 205.652344 192.53125 C 206.652344 191.757812 207.308594 190.695312 207.609375 189.5 Z M 209.464844 189.941406 C 209.074219 191.539062 208.097656 193.03125 206.808594 194 C 205.523438 194.988281 204.0625 195.589844 202.605469 195.996094 C 201.136719 196.390625 199.65625 196.601562 198.183594 196.71875 C 196.707031 196.839844 195.238281 196.839844 193.773438 196.800781 C 190.847656 196.707031 187.949219 196.390625 185.085938 195.9375 C 183.648438 195.714844 182.222656 195.457031 180.800781 195.164062 C 179.375 194.871094 177.96875 194.558594 176.546875 194.191406 L 176.605469 194.203125 C 174.828125 193.851562 173.101562 193.441406 171.367188 192.988281 C 169.640625 192.535156 167.921875 192.039062 166.21875 191.480469 C 164.519531 190.921875 162.832031 190.316406 161.171875 189.628906 C 159.515625 188.929688 157.878906 188.175781 156.300781 187.28125 C 154.726562 186.390625 153.203125 185.363281 151.851562 184.085938 C 151.1875 183.441406 150.546875 182.75 150.039062 181.9375 C 149.527344 181.136719 149.097656 180.25 148.902344 179.285156 C 148.707031 178.320312 148.726562 177.316406 148.921875 176.371094 C 149.039062 175.925781 149.132812 175.46875 149.273438 175.035156 C 149.417969 174.605469 149.539062 174.164062 149.699219 173.742188 C 150.308594 172.035156 151.046875 170.402344 151.824219 168.792969 C 153.378906 165.574219 155.128906 162.472656 156.917969 159.398438 C 158.722656 156.332031 160.59375 153.3125 162.503906 150.316406 C 166.335938 144.335938 170.308594 138.453125 174.414062 132.652344 L 174.417969 132.652344 L 174.59375 132.402344 L 174.886719 132.488281 L 189.425781 136.710938 L 189.371094 136.699219 L 204.332031 139.058594 L 204.632812 139.105469 L 204.683594 139.402344 C 205.464844 143.558594 206.175781 147.714844 206.835938 151.886719 C 207.5 156.054688 208.105469 160.238281 208.632812 164.429688 C 209.15625 168.625 209.601562 172.832031 209.878906 177.070312 C 210.007812 179.1875 210.097656 181.3125 210.085938 183.453125 C 210.066406 185.59375 209.96875 187.75 209.464844 189.941406 Z M 209.464844 189.941406 " fill-opacity="1" fill-rule="nonzero"/><path fill="#ffffff" d="M 197.890625 150.855469 C 197.890625 150.855469 198.496094 169.285156 208.484375 173.792969 L 208.488281 173.792969 C 207.730469 164.578125 206.238281 154.335938 205.191406 147.789062 C 202.519531 148.773438 197.890625 150.855469 197.890625 150.855469 Z M 197.890625 150.855469 " fill-opacity="1" fill-rule="nonzero"/><path fill="#2b2b2b" d="M 198.332031 151.125 C 198.460938 153.398438 199.636719 168.566406 207.996094 173.074219 C 207.25 164.390625 205.898438 154.984375 204.851562 148.371094 C 202.578125 149.242188 199.285156 150.699219 198.332031 151.125 Z M 208.960938 174.355469 L 208.308594 174.183594 C 198.191406 169.617188 197.488281 151.632812 197.464844 150.867188 L 197.453125 150.582031 L 197.714844 150.464844 C 197.761719 150.441406 202.386719 148.363281 205.042969 147.386719 L 205.53125 147.207031 L 205.613281 147.71875 C 206.703125 154.550781 208.160156 164.613281 208.910156 173.757812 Z M 208.960938 174.355469 " fill-opacity="1" fill-rule="nonzero"/><path fill="#ffffff" d="M 176.257812 144.605469 C 176.257812 144.605469 167.878906 161.03125 156.921875 160.867188 L 156.917969 160.867188 C 161.519531 152.847656 167.226562 144.207031 170.953125 138.726562 C 172.953125 140.753906 176.257812 144.605469 176.257812 144.605469 Z M 176.257812 144.605469 " fill-opacity="1" fill-rule="nonzero"/><path fill="#2b2b2b" d="M 171.011719 139.398438 C 167.253906 144.941406 162.03125 152.882812 157.667969 160.425781 C 167.152344 159.894531 174.660156 146.667969 175.742188 144.660156 C 175.0625 143.875 172.703125 141.15625 171.011719 139.398438 Z M 157.085938 161.296875 C 157.027344 161.296875 156.972656 161.296875 156.914062 161.296875 L 156.835938 161.289062 L 156.253906 161.171875 L 156.546875 160.65625 C 161.113281 152.699219 166.707031 144.207031 170.597656 138.484375 L 170.890625 138.054688 L 171.257812 138.425781 C 173.246094 140.441406 176.550781 144.289062 176.582031 144.328125 L 176.769531 144.542969 L 176.640625 144.800781 C 176.292969 145.476562 168.09375 161.296875 157.085938 161.296875 Z M 157.085938 161.296875 " fill-opacity="1" fill-rule="nonzero"/><path fill="#ff914d" d="M 200.84375 174.359375 L 196.035156 195.933594 C 187.105469 196.144531 176.75 193.414062 176.75 193.414062 C 176.75 193.414062 168.09375 191.832031 160.53125 188.570312 C 159.746094 188.230469 158.972656 187.875 158.222656 187.5 L 163.035156 165.925781 C 163.484375 163.90625 165.488281 162.636719 167.5 163.085938 L 171.835938 164.054688 L 198.007812 169.894531 C 200.027344 170.34375 201.296875 172.339844 200.84375 174.359375 Z M 200.84375 174.359375 " fill-opacity="1" fill-rule="nonzero"/><path fill="#ff5757" d="M 173.5 164.976562 C 173.5 164.976562 166.433594 163.617188 165.253906 166.363281 C 164.261719 168.667969 161.429688 183.734375 160.53125 188.570312 C 159.746094 188.230469 158.972656 187.875 158.222656 187.5 L 163.035156 165.925781 C 163.484375 163.90625 165.484375 162.636719 167.5 163.085938 L 171.832031 164.054688 Z M 173.5 164.976562 " fill-opacity="1" fill-rule="nonzero"/><path fill="#2b2b2b" d="M 200.320312 174.242188 C 200.4375 173.671875 200.421875 173.074219 200.226562 172.523438 C 200.050781 171.972656 199.703125 171.476562 199.261719 171.101562 C 199.042969 170.914062 198.792969 170.761719 198.53125 170.632812 C 198.398438 170.582031 198.265625 170.519531 198.125 170.484375 L 197.914062 170.425781 L 197.667969 170.367188 L 195.683594 169.925781 L 187.738281 168.152344 L 171.851562 164.609375 L 167.878906 163.722656 L 167.382812 163.613281 C 167.238281 163.59375 167.097656 163.550781 166.953125 163.550781 C 166.660156 163.515625 166.371094 163.550781 166.085938 163.59375 C 165.800781 163.652344 165.523438 163.746094 165.261719 163.871094 C 165.007812 164.007812 164.753906 164.160156 164.542969 164.363281 C 164.332031 164.558594 164.132812 164.777344 163.984375 165.023438 C 163.824219 165.269531 163.707031 165.535156 163.621094 165.8125 L 163.5625 166.023438 L 163.507812 166.269531 L 163.394531 166.765625 L 163.175781 167.757812 L 162.285156 171.730469 L 160.476562 179.664062 L 159.566406 183.632812 L 158.636719 187.59375 L 158.410156 187.121094 L 158.414062 187.121094 C 159.859375 187.824219 161.335938 188.472656 162.84375 189.046875 C 164.355469 189.617188 165.878906 190.152344 167.425781 190.621094 C 168.972656 191.097656 170.527344 191.535156 172.097656 191.933594 C 173.664062 192.328125 175.246094 192.691406 176.824219 192.996094 L 176.855469 193.003906 C 178.414062 193.398438 180.003906 193.742188 181.589844 194.050781 C 183.175781 194.359375 184.773438 194.625 186.375 194.851562 C 187.976562 195.078125 189.582031 195.242188 191.191406 195.371094 C 192.800781 195.488281 194.414062 195.53125 196.023438 195.507812 L 195.613281 195.84375 L 196.773438 190.441406 L 197.957031 185.042969 Z M 201.371094 174.476562 L 198.921875 185.253906 L 197.699219 190.644531 L 196.453125 196.027344 L 196.375 196.359375 L 196.042969 196.359375 C 194.402344 196.382812 192.761719 196.339844 191.128906 196.21875 C 189.5 196.09375 187.875 195.925781 186.257812 195.695312 C 184.640625 195.464844 183.03125 195.195312 181.425781 194.886719 C 179.824219 194.574219 178.234375 194.230469 176.640625 193.828125 L 176.671875 193.835938 C 175.058594 193.523438 173.472656 193.15625 171.890625 192.757812 C 170.308594 192.359375 168.734375 191.917969 167.175781 191.4375 C 165.613281 190.960938 164.070312 190.421875 162.539062 189.84375 C 161.007812 189.257812 159.507812 188.601562 158.03125 187.882812 L 157.730469 187.746094 L 157.804688 187.40625 L 158.644531 183.425781 L 159.511719 179.449219 L 161.242188 171.496094 L 162.125 167.523438 L 162.347656 166.53125 L 162.457031 166.035156 L 162.515625 165.78125 L 162.59375 165.5 C 162.703125 165.132812 162.863281 164.773438 163.074219 164.449219 C 163.277344 164.117188 163.539062 163.824219 163.824219 163.5625 C 164.109375 163.296875 164.441406 163.089844 164.78125 162.910156 C 165.128906 162.738281 165.5 162.613281 165.882812 162.539062 C 166.261719 162.476562 166.652344 162.4375 167.039062 162.480469 C 167.234375 162.484375 167.421875 162.535156 167.613281 162.5625 L 168.109375 162.675781 L 172.082031 163.5625 L 187.972656 167.105469 L 195.914062 168.875 L 197.902344 169.320312 L 198.152344 169.378906 L 198.433594 169.453125 C 198.617188 169.503906 198.796875 169.585938 198.976562 169.65625 C 199.328125 169.824219 199.660156 170.03125 199.957031 170.28125 C 200.542969 170.785156 201.003906 171.441406 201.246094 172.179688 C 201.503906 172.914062 201.527344 173.71875 201.371094 174.476562 Z M 201.371094 174.476562 " fill-opacity="1" fill-rule="nonzero"/><path fill="#2b2b2b" d="M 155.691406 209.242188 C 151.589844 197.226562 142.464844 195.796875 142.078125 195.742188 L 142.308594 194.058594 C 142.738281 194.117188 152.84375 195.644531 157.300781 208.691406 Z M 155.691406 209.242188 " fill-opacity="1" fill-rule="nonzero"/><path fill="#2b2b2b" d="M 186.332031 213.09375 L 185.125 211.894531 C 185.425781 211.589844 192.710938 204.417969 205.824219 208.683594 L 205.296875 210.300781 C 193.222656 206.375 186.605469 212.816406 186.332031 213.09375 Z M 186.332031 213.09375 " fill-opacity="1" fill-rule="nonzero"/><path fill="#ff914d" d="M 145.972656 220.367188 C 143.003906 223.582031 138.261719 221.914062 133.472656 217.496094 C 132.859375 216.929688 132.273438 216.347656 131.730469 215.75 C 129.238281 213.035156 127.535156 210.101562 127.464844 207.621094 C 127.425781 206.402344 127.785156 205.289062 128.640625 204.363281 C 130.265625 202.601562 132.882812 202.097656 135.707031 202.722656 C 138.042969 203.242188 140.515625 204.535156 142.683594 206.539062 C 143.316406 207.125 143.894531 207.742188 144.410156 208.378906 C 147.785156 212.550781 148.546875 217.578125 145.972656 220.367188 Z M 145.972656 220.367188 " fill-opacity="1" fill-rule="nonzero"/><path fill="#f6f4f1" d="M 135.707031 202.722656 C 135.382812 202.796875 129.320312 204.214844 127.464844 207.621094 C 127.425781 206.402344 127.785156 205.289062 128.640625 204.363281 C 130.265625 202.605469 132.882812 202.097656 135.707031 202.722656 Z M 135.707031 202.722656 " fill-opacity="1" fill-rule="nonzero"/><path fill="#ff5757" d="M 145.972656 220.367188 C 143.003906 223.582031 138.261719 221.914062 133.472656 217.496094 C 132.859375 216.929688 132.273438 216.347656 131.730469 215.75 C 134.257812 217.203125 137.085938 217.492188 138.714844 217.980469 C 143.578125 219.433594 144.410156 208.378906 144.410156 208.378906 C 147.785156 212.550781 148.546875 217.578125 145.972656 220.367188 Z M 145.972656 220.367188 " fill-opacity="1" fill-rule="nonzero"/><g clip-path="url(#3ae4007be8)"><path fill="#2b2b2b" d="M 145.363281 219.800781 C 146.105469 219.023438 146.570312 217.980469 146.707031 216.847656 C 146.851562 215.71875 146.703125 214.523438 146.378906 213.375 C 145.71875 211.0625 144.351562 208.929688 142.613281 207.191406 C 140.875 205.445312 138.738281 204.046875 136.378906 203.347656 C 135.207031 203 133.976562 202.828125 132.777344 202.933594 C 131.578125 203.03125 130.414062 203.433594 129.511719 204.175781 C 129.0625 204.550781 128.679688 204.992188 128.414062 205.488281 C 128.144531 205.984375 128.015625 206.546875 127.980469 207.113281 C 127.917969 208.261719 128.277344 209.4375 128.792969 210.527344 C 129.3125 211.625 130 212.652344 130.769531 213.617188 C 131.539062 214.578125 132.390625 215.488281 133.292969 216.335938 C 134.199219 217.183594 135.152344 217.980469 136.144531 218.699219 C 137.140625 219.414062 138.183594 220.050781 139.277344 220.503906 C 140.367188 220.953125 141.503906 221.214844 142.570312 221.144531 C 143.628906 221.0625 144.59375 220.59375 145.363281 219.800781 Z M 146.585938 220.929688 L 146.195312 221.3125 C 146.0625 221.4375 145.941406 221.570312 145.78125 221.671875 C 145.484375 221.890625 145.191406 222.121094 144.847656 222.273438 C 144.679688 222.355469 144.519531 222.460938 144.339844 222.515625 L 143.808594 222.695312 C 143.628906 222.761719 143.445312 222.777344 143.261719 222.816406 C 143.078125 222.84375 142.894531 222.886719 142.710938 222.894531 C 141.230469 223 139.839844 222.601562 138.609375 222.046875 C 137.371094 221.488281 136.253906 220.757812 135.214844 219.960938 C 134.171875 219.15625 133.195312 218.292969 132.292969 217.359375 C 130.480469 215.503906 128.839844 213.429688 127.757812 211 C 127.238281 209.785156 126.859375 208.441406 126.972656 207.042969 C 127.039062 206.347656 127.234375 205.652344 127.582031 205.035156 C 127.925781 204.417969 128.402344 203.894531 128.9375 203.464844 C 130.027344 202.613281 131.375 202.167969 132.703125 202.066406 C 134.039062 201.964844 135.363281 202.15625 136.625 202.519531 C 139.144531 203.265625 141.417969 204.671875 143.335938 206.445312 C 144.296875 207.332031 145.152344 208.332031 145.898438 209.421875 C 146.644531 210.507812 147.257812 211.699219 147.6875 212.972656 C 148.113281 214.242188 148.339844 215.617188 148.21875 217.011719 C 148.109375 218.402344 147.566406 219.832031 146.585938 220.929688 Z M 146.585938 220.929688 " fill-opacity="1" fill-rule="nonzero"/></g><path fill="#ff914d" d="M 212.210938 227.464844 C 210.828125 229.800781 207.457031 231.394531 203.011719 232.210938 C 196.605469 233.390625 190.402344 232.503906 189.609375 228.199219 C 189.058594 225.210938 191.078125 222.15625 194.507812 220.175781 C 194.511719 220.171875 194.511719 220.171875 194.511719 220.171875 C 196.027344 219.296875 197.816406 218.628906 199.777344 218.269531 C 206.183594 217.09375 212.015625 219.628906 212.808594 223.933594 C 213.050781 225.253906 212.828125 226.433594 212.210938 227.464844 Z M 212.210938 227.464844 " fill-opacity="1" fill-rule="nonzero"/><path fill="#ff5757" d="M 212.210938 227.464844 C 210.828125 229.800781 207.457031 231.394531 203.011719 232.210938 C 196.605469 233.390625 190.402344 232.503906 189.609375 228.199219 C 189.058594 225.210938 191.078125 222.15625 194.507812 220.175781 C 194.449219 220.351562 191.921875 227.789062 200.613281 228.875 C 205.722656 229.511719 209.742188 228.460938 212.210938 227.464844 Z M 212.210938 227.464844 " fill-opacity="1" fill-rule="nonzero"/><g clip-path="url(#d204bddb7c)"><path fill="#2b2b2b" d="M 212.25 224.035156 C 212.0625 222.914062 211.46875 221.867188 210.609375 221.050781 C 209.757812 220.226562 208.683594 219.609375 207.539062 219.1875 C 205.234375 218.335938 202.671875 218.234375 200.242188 218.65625 C 197.8125 219.078125 195.4375 220 193.511719 221.496094 C 192.554688 222.242188 191.710938 223.125 191.101562 224.132812 C 190.496094 225.132812 190.152344 226.269531 190.210938 227.378906 C 190.246094 227.9375 190.367188 228.476562 190.59375 228.949219 C 190.816406 229.429688 191.164062 229.835938 191.570312 230.1875 C 192.402344 230.890625 193.519531 231.308594 194.675781 231.554688 C 195.839844 231.796875 197.058594 231.882812 198.28125 231.867188 C 199.503906 231.84375 200.734375 231.738281 201.957031 231.554688 C 204.394531 231.175781 206.84375 230.617188 208.964844 229.488281 C 210.011719 228.921875 210.964844 228.1875 211.59375 227.253906 C 212.21875 226.320312 212.429688 225.179688 212.25 224.035156 Z M 213.367188 223.832031 L 213.433594 224.351562 C 213.457031 224.523438 213.488281 224.695312 213.476562 224.875 C 213.476562 225.230469 213.480469 225.585938 213.402344 225.9375 C 213.3125 226.648438 213.015625 227.316406 212.664062 227.929688 C 211.90625 229.132812 210.816406 230.035156 209.667969 230.71875 C 208.511719 231.410156 207.273438 231.898438 206.019531 232.292969 C 204.769531 232.683594 203.496094 232.976562 202.207031 233.175781 C 199.632812 233.570312 196.976562 233.6875 194.332031 233.109375 C 193.671875 232.953125 193.019531 232.75 192.382812 232.464844 C 191.75 232.175781 191.125 231.816406 190.585938 231.328125 C 190.046875 230.839844 189.574219 230.234375 189.28125 229.550781 C 188.984375 228.867188 188.851562 228.140625 188.832031 227.429688 C 188.808594 225.988281 189.296875 224.605469 190.042969 223.46875 C 190.792969 222.324219 191.773438 221.382812 192.84375 220.605469 C 195.007812 219.066406 197.523438 218.140625 200.097656 217.75 C 202.667969 217.371094 205.339844 217.503906 207.839844 218.351562 C 209.082031 218.78125 210.285156 219.40625 211.296875 220.316406 C 212.308594 221.210938 213.089844 222.449219 213.367188 223.832031 Z M 213.367188 223.832031 " fill-opacity="1" fill-rule="nonzero"/></g><path fill="#2b2b2b" d="M 221.679688 161.484375 C 214.1875 157.222656 217.09375 147.484375 217.121094 147.386719 L 218.203125 147.71875 C 218.089844 148.085938 215.542969 156.6875 222.242188 160.503906 Z M 221.679688 161.484375 " fill-opacity="1" fill-rule="nonzero"/><path fill="#2b2b2b" d="M 151.621094 144.980469 L 151.484375 143.859375 C 158.019531 143.046875 161.167969 134.390625 161.199219 134.304688 L 162.265625 134.683594 C 162.128906 135.066406 158.859375 144.085938 151.621094 144.980469 Z M 151.621094 144.980469 " fill-opacity="1" fill-rule="nonzero"/><path fill="#ff5757" d="M 173.503906 172.019531 C 173.503906 174.296875 171.65625 176.144531 169.378906 176.144531 C 168.964844 176.144531 168.566406 176.085938 168.191406 175.972656 C 166.492188 175.460938 165.253906 173.882812 165.253906 172.019531 C 165.253906 169.945312 166.78125 168.234375 168.773438 167.941406 C 168.96875 167.910156 169.175781 167.894531 169.378906 167.894531 C 171.65625 167.894531 173.503906 169.742188 173.503906 172.019531 Z M 173.503906 172.019531 " fill-opacity="1" fill-rule="nonzero"/><path fill="#ff914d" d="M 173.503906 172.019531 C 173.503906 174.296875 171.65625 176.144531 169.378906 176.144531 C 168.964844 176.144531 168.566406 176.085938 168.191406 175.972656 C 171.296875 173.078125 169.652344 169.414062 168.773438 167.941406 C 168.96875 167.910156 169.175781 167.894531 169.378906 167.894531 C 171.65625 167.894531 173.503906 169.742188 173.503906 172.019531 Z M 173.503906 172.019531 " fill-opacity="1" fill-rule="nonzero"/><path fill="#2b2b2b" d="M 169.378906 168.324219 C 167.339844 168.324219 165.683594 169.980469 165.683594 172.019531 C 165.683594 174.058594 167.339844 175.714844 169.378906 175.714844 C 171.417969 175.714844 173.074219 174.058594 173.074219 172.019531 C 173.074219 169.980469 171.417969 168.324219 169.378906 168.324219 Z M 169.378906 176.570312 C 166.867188 176.570312 164.828125 174.53125 164.828125 172.019531 C 164.828125 169.507812 166.867188 167.46875 169.378906 167.46875 C 171.890625 167.46875 173.929688 169.507812 173.929688 172.019531 C 173.929688 174.53125 171.886719 176.570312 169.378906 176.570312 Z M 169.378906 176.570312 " fill-opacity="1" fill-rule="nonzero"/><path fill="#ff914d" d="M 156.632812 104.667969 L 160.191406 87.863281 L 162.144531 88.171875 L 159.914062 103.191406 Z M 156.632812 104.667969 " fill-opacity="1" fill-rule="nonzero"/><path fill="#2b2b2b" d="M 160.527344 88.347656 L 157.226562 103.933594 L 159.527344 102.898438 L 161.660156 88.527344 Z M 156.039062 105.40625 L 159.859375 87.375 L 162.632812 87.8125 L 160.304688 103.484375 Z M 156.039062 105.40625 " fill-opacity="1" fill-rule="nonzero"/><path fill="#ff914d" d="M 159.808594 130.660156 C 159.808594 130.660156 159.34375 130.484375 158.652344 130.183594 C 157.242188 129.570312 154.894531 128.425781 153.683594 127.164062 C 151.882812 125.277344 152.828125 110.222656 153.636719 107.585938 C 154.105469 106.046875 156.96875 104.351562 159.273438 103.207031 C 160.917969 102.390625 162.277344 101.851562 162.277344 101.851562 Z M 159.808594 130.660156 " fill-opacity="1" fill-rule="nonzero"/><path fill="#ff5757" d="M 159.808594 130.660156 C 159.808594 130.660156 159.34375 130.484375 158.652344 130.183594 C 152.25 122.640625 158.296875 104.3125 158.296875 104.3125 L 159.273438 103.207031 C 160.914062 102.390625 162.273438 101.851562 162.273438 101.851562 Z M 159.808594 130.660156 " fill-opacity="1" fill-rule="nonzero"/><path fill="#2b2b2b" d="M 162.433594 102.25 C 161.027344 102.871094 159.628906 103.550781 158.296875 104.3125 C 157.628906 104.691406 156.980469 105.101562 156.363281 105.527344 C 155.75 105.960938 155.15625 106.433594 154.707031 106.957031 C 154.484375 107.214844 154.304688 107.496094 154.230469 107.742188 C 154.136719 108.042969 154.074219 108.433594 154.011719 108.796875 C 153.898438 109.546875 153.816406 110.316406 153.746094 111.082031 C 153.597656 112.621094 153.5 114.167969 153.4375 115.71875 C 153.367188 117.265625 153.332031 118.816406 153.351562 120.359375 C 153.375 121.898438 153.425781 123.449219 153.636719 124.929688 C 153.664062 125.113281 153.691406 125.296875 153.730469 125.472656 L 153.785156 125.738281 L 153.851562 125.992188 C 153.871094 126.078125 153.898438 126.15625 153.925781 126.230469 C 153.953125 126.300781 153.972656 126.394531 154.007812 126.449219 C 154.039062 126.503906 154.066406 126.585938 154.097656 126.621094 C 154.113281 126.640625 154.125 126.660156 154.136719 126.679688 L 154.152344 126.710938 L 154.199219 126.757812 C 154.675781 127.257812 155.285156 127.699219 155.910156 128.109375 C 157.175781 128.921875 158.566406 129.628906 159.957031 130.257812 L 159.660156 131.058594 C 158.894531 130.808594 158.164062 130.519531 157.433594 130.203125 C 156.703125 129.890625 155.984375 129.539062 155.285156 129.132812 C 154.585938 128.726562 153.902344 128.269531 153.273438 127.664062 L 153.214844 127.609375 L 153.144531 127.523438 L 153.007812 127.347656 C 152.917969 127.226562 152.878906 127.121094 152.816406 127.007812 C 152.75 126.890625 152.726562 126.789062 152.683594 126.683594 C 152.640625 126.574219 152.601562 126.46875 152.574219 126.367188 L 152.484375 126.054688 L 152.414062 125.75 C 152.367188 125.542969 152.335938 125.34375 152.296875 125.140625 C 152.160156 124.335938 152.09375 123.539062 152.042969 122.746094 C 151.992188 121.953125 151.96875 121.160156 151.964844 120.371094 C 151.953125 118.792969 151.992188 117.222656 152.070312 115.652344 C 152.15625 114.082031 152.273438 112.515625 152.445312 110.945312 C 152.535156 110.164062 152.640625 109.378906 152.777344 108.589844 C 152.855469 108.1875 152.921875 107.804688 153.0625 107.359375 C 153.238281 106.867188 153.515625 106.496094 153.804688 106.164062 C 154.390625 105.519531 155.050781 105.035156 155.71875 104.582031 C 156.390625 104.136719 157.085938 103.742188 157.789062 103.375 C 159.203125 102.644531 160.636719 102.003906 162.121094 101.449219 Z M 162.433594 102.25 " fill-opacity="1" fill-rule="nonzero"/><path fill="#ff914d" d="M 235.90625 119.105469 L 238.503906 102.125 L 236.566406 101.722656 L 233.355469 116.566406 Z M 235.90625 119.105469 " fill-opacity="1" fill-rule="nonzero"/><path fill="#2b2b2b" d="M 233.824219 116.429688 L 235.613281 118.207031 L 238.019531 102.460938 L 236.894531 102.230469 Z M 236.203125 120.003906 L 232.890625 116.703125 L 236.238281 101.21875 L 238.988281 101.789062 Z M 236.203125 120.003906 " fill-opacity="1" fill-rule="nonzero"/><path fill="#ff914d" d="M 230.738281 141.195312 C 229.757812 141.667969 228.378906 141.9375 227.105469 142.09375 C 225.335938 142.3125 223.773438 142.308594 223.773438 142.308594 L 231.621094 114.480469 C 231.621094 114.480469 232.96875 115.703125 234.394531 117.292969 C 236.035156 119.117188 237.777344 121.421875 237.683594 122.890625 C 237.511719 125.644531 233.089844 140.070312 230.738281 141.195312 Z M 230.738281 141.195312 " fill-opacity="1" fill-rule="nonzero"/><path fill="#ff5757" d="M 227.105469 142.09375 C 225.335938 142.3125 223.773438 142.308594 223.773438 142.308594 L 231.621094 114.480469 C 231.621094 114.480469 232.96875 115.703125 234.394531 117.292969 C 234.277344 120.332031 233.414062 133.59375 227.105469 142.09375 Z M 227.105469 142.09375 " fill-opacity="1" fill-rule="nonzero"/><path fill="#2b2b2b" d="M 223.773438 142.738281 L 223.773438 141.882812 C 223.820312 141.882812 228.320312 141.882812 230.550781 140.8125 C 232.554688 139.851562 237.0625 125.941406 237.257812 122.867188 C 237.390625 120.78125 233.027344 116.332031 231.332031 114.796875 L 231.90625 114.164062 C 232.5625 114.757812 238.296875 120.046875 238.113281 122.921875 C 237.945312 125.578125 233.539062 140.328125 230.921875 141.582031 C 228.511719 142.738281 223.964844 142.738281 223.773438 142.738281 Z M 223.773438 142.738281 " fill-opacity="1" fill-rule="nonzero"/><path fill="#ff914d" d="M 223.785156 142.277344 C 223.460938 142.648438 223.132812 143.007812 222.789062 143.359375 C 222.03125 144.148438 221.21875 144.886719 220.363281 145.582031 C 218.539062 147.058594 216.507812 148.328125 214.273438 149.371094 C 207.589844 152.488281 199.085938 153.578125 188.9375 152.136719 C 178.933594 149.910156 171.359375 145.890625 166.207031 140.617188 C 164.484375 138.851562 163.027344 136.949219 161.84375 134.921875 C 161.761719 134.789062 161.6875 134.65625 161.613281 134.519531 C 155.628906 123.898438 157.257812 110.054688 164.933594 95.40625 C 167.195312 91.101562 170.285156 87.832031 173.90625 85.453125 C 181.792969 80.277344 192.179688 79.320312 201.886719 81.039062 C 209.90625 82.542969 217.71875 85.921875 223.324219 91.375 C 227.597656 95.523438 230.585938 100.878906 231.40625 107.515625 C 231.714844 110.007812 231.890625 112.433594 231.945312 114.785156 C 232.222656 126.082031 229.574219 135.609375 223.785156 142.277344 Z M 223.785156 142.277344 " fill-opacity="1" fill-rule="nonzero"/><path fill="#f6f4f1" d="M 223.324219 91.375 C 219.03125 88.703125 211.953125 85.410156 200.691406 83.425781 C 189.933594 81.535156 180.394531 83.371094 173.90625 85.453125 C 181.792969 80.277344 192.179688 79.320312 201.886719 81.039062 C 209.910156 82.542969 217.722656 85.921875 223.324219 91.375 Z M 223.324219 91.375 " fill-opacity="1" fill-rule="nonzero"/><path fill="#ff5757" d="M 222.789062 143.359375 C 222.03125 144.148438 221.21875 144.886719 220.363281 145.582031 C 218.539062 147.058594 216.507812 148.328125 214.273438 149.371094 C 207.589844 152.488281 199.085938 153.578125 188.9375 152.136719 C 178.933594 149.910156 171.359375 145.890625 166.207031 140.617188 C 164.484375 138.851562 163.027344 136.949219 161.84375 134.921875 C 161.761719 134.789062 161.6875 134.65625 161.613281 134.519531 C 160.269531 128.890625 159.617188 118.339844 165.132812 107.753906 C 174.296875 90.171875 183.355469 87.226562 200.230469 90.296875 C 215.578125 93.09375 229.15625 103.992188 226.351562 128.148438 C 225.65625 134.140625 224.359375 139.175781 222.789062 143.359375 Z M 222.789062 143.359375 " fill-opacity="1" fill-rule="nonzero"/><g clip-path="url(#52298ca743)"><path fill="#2b2b2b" d="M 223.308594 141.867188 C 225.921875 138.835938 227.816406 135.234375 229.078125 131.425781 C 229.722656 129.523438 230.179688 127.5625 230.523438 125.578125 C 230.863281 123.59375 231.089844 121.585938 231.183594 119.570312 C 231.394531 115.539062 231.183594 111.480469 230.667969 107.46875 C 230.160156 103.515625 228.773438 99.691406 226.5625 96.382812 C 225.460938 94.730469 224.171875 93.199219 222.738281 91.8125 C 221.304688 90.425781 219.722656 89.1875 218.054688 88.082031 C 214.710938 85.867188 210.988281 84.238281 207.144531 83.058594 C 205.21875 82.46875 203.25 82 201.273438 81.65625 C 199.289062 81.324219 197.277344 81.105469 195.269531 81.011719 C 191.25 80.832031 187.199219 81.152344 183.3125 82.136719 C 181.371094 82.632812 179.476562 83.296875 177.667969 84.140625 C 175.855469 84.984375 174.148438 86.035156 172.574219 87.25 C 171 88.46875 169.566406 89.867188 168.328125 91.425781 C 167.078125 92.984375 166.027344 94.671875 165.132812 96.484375 C 163.28125 100.089844 161.707031 103.835938 160.554688 107.710938 L 160.125 109.164062 L 159.773438 110.632812 L 159.597656 111.371094 L 159.511719 111.738281 L 159.441406 112.109375 L 159.171875 113.597656 C 159.128906 113.84375 159.082031 114.09375 159.042969 114.339844 L 158.773438 116.589844 C 158.71875 117.089844 158.710938 117.59375 158.675781 118.09375 L 158.632812 118.847656 L 158.609375 119.222656 L 158.613281 119.597656 C 158.636719 120.601562 158.605469 121.609375 158.71875 122.605469 C 158.765625 123.105469 158.789062 123.605469 158.851562 124.101562 C 158.925781 124.597656 159 125.09375 159.070312 125.589844 C 159.109375 125.835938 159.132812 126.085938 159.183594 126.332031 L 159.34375 127.066406 C 159.453125 127.554688 159.546875 128.046875 159.667969 128.535156 L 160.105469 129.972656 C 160.183594 130.214844 160.246094 130.457031 160.332031 130.695312 L 160.617188 131.390625 C 160.808594 131.855469 160.988281 132.328125 161.195312 132.78125 L 161.902344 134.117188 C 162.019531 134.339844 162.132812 134.5625 162.257812 134.78125 C 162.386719 134.996094 162.515625 135.210938 162.652344 135.425781 C 162.917969 135.851562 163.199219 136.269531 163.488281 136.679688 C 164.652344 138.324219 165.988281 139.84375 167.457031 141.21875 C 170.402344 143.976562 173.859375 146.160156 177.527344 147.859375 C 181.199219 149.5625 185.09375 150.765625 189.050781 151.65625 L 189.011719 151.648438 C 192.109375 152.070312 195.234375 152.296875 198.347656 152.230469 C 199.90625 152.207031 201.460938 152.078125 203.007812 151.90625 C 204.550781 151.71875 206.082031 151.4375 207.589844 151.082031 C 209.101562 150.726562 210.578125 150.253906 212.023438 149.699219 C 213.464844 149.136719 214.867188 148.484375 216.203125 147.707031 C 218.878906 146.167969 221.300781 144.199219 223.308594 141.867188 Z M 224.257812 142.691406 C 222.140625 145.121094 219.585938 147.160156 216.792969 148.738281 C 215.398438 149.535156 213.933594 150.207031 212.4375 150.773438 C 210.9375 151.339844 209.40625 151.816406 207.847656 152.171875 C 206.292969 152.527344 204.71875 152.804688 203.132812 152.984375 C 201.546875 153.152344 199.957031 153.269531 198.367188 153.28125 C 195.183594 153.332031 192.011719 153.070312 188.871094 152.632812 L 188.832031 152.625 C 184.824219 151.707031 180.867188 150.464844 177.128906 148.714844 C 173.394531 146.964844 169.859375 144.714844 166.84375 141.867188 C 165.335938 140.445312 163.96875 138.875 162.777344 137.175781 C 162.480469 136.753906 162.195312 136.320312 161.917969 135.878906 C 161.78125 135.660156 161.648438 135.4375 161.515625 135.214844 C 161.386719 134.988281 161.273438 134.757812 161.148438 134.527344 L 160.417969 133.15625 C 160.199219 132.683594 159.996094 132.207031 159.785156 131.730469 L 159.464844 131.019531 C 159.367188 130.78125 159.289062 130.535156 159.199219 130.289062 L 158.671875 128.820312 C 158.523438 128.324219 158.402344 127.816406 158.261719 127.316406 L 158.058594 126.558594 C 157.996094 126.304688 157.964844 126.046875 157.914062 125.792969 C 157.820312 125.28125 157.734375 124.765625 157.648438 124.253906 C 157.578125 123.738281 157.546875 123.21875 157.5 122.699219 C 157.375 121.664062 157.40625 120.621094 157.378906 119.582031 L 157.375 119.195312 L 157.394531 118.804688 L 157.4375 118.027344 C 157.472656 117.507812 157.480469 116.988281 157.53125 116.472656 L 157.714844 114.929688 L 157.804688 114.15625 C 157.84375 113.902344 157.894531 113.648438 157.9375 113.390625 L 158.210938 111.863281 L 158.277344 111.480469 L 158.367188 111.101562 L 158.546875 110.347656 L 158.902344 108.835938 L 159.335938 107.347656 C 160.503906 103.382812 162.097656 99.558594 163.964844 95.886719 C 165.777344 92.160156 168.421875 88.738281 171.746094 86.183594 C 173.398438 84.898438 175.191406 83.789062 177.085938 82.902344 C 178.976562 82.011719 180.953125 81.3125 182.96875 80.789062 C 187.011719 79.761719 191.195312 79.425781 195.332031 79.605469 C 197.40625 79.703125 199.464844 79.925781 201.511719 80.265625 C 203.558594 80.617188 205.574219 81.09375 207.558594 81.699219 C 211.519531 82.910156 215.363281 84.585938 218.847656 86.882812 C 220.582031 88.03125 222.234375 89.320312 223.742188 90.769531 C 225.246094 92.226562 226.605469 93.835938 227.773438 95.578125 C 230.117188 99.066406 231.574219 103.132812 232.097656 107.285156 C 232.617188 111.378906 232.800781 115.515625 232.566406 119.648438 C 232.464844 121.710938 232.21875 123.773438 231.855469 125.8125 C 231.492188 127.851562 231.011719 129.878906 230.335938 131.847656 C 229.003906 135.78125 227.007812 139.535156 224.257812 142.691406 Z M 224.257812 142.691406 " fill-opacity="1" fill-rule="nonzero"/></g><path fill="#2b2b2b" d="M 225.1875 131.125 C 223.828125 138.585938 219.824219 144.914062 214.273438 149.375 C 207.589844 152.488281 199.089844 153.582031 188.941406 152.136719 C 178.933594 149.910156 171.363281 145.890625 166.207031 140.617188 C 162.585938 134.488281 161.066406 127.15625 162.425781 119.695312 C 165.492188 102.871094 182.023438 91.792969 199.355469 94.949219 C 216.6875 98.105469 228.253906 114.300781 225.1875 131.125 Z M 225.1875 131.125 " fill-opacity="1" fill-rule="nonzero"/><path fill="#f6f4f1" d="M 166.789062 125.40625 C 165.789062 125.480469 166.824219 133.355469 171.617188 139.457031 C 177.023438 146.34375 186.523438 148.261719 186.871094 147.015625 C 187.371094 145.199219 180.46875 144.949219 174.253906 138.894531 C 168.964844 133.746094 167.898438 125.324219 166.789062 125.40625 Z M 166.789062 125.40625 " fill-opacity="1" fill-rule="nonzero"/><path fill="#f6f4f1" d="M 221.179688 120.511719 C 221.894531 120.371094 221.867188 117.433594 220.6875 114.402344 C 219.441406 111.191406 216.597656 108.894531 216.011719 109.265625 C 215.59375 109.527344 216.242188 110.425781 217.84375 113.65625 C 220.09375 118.191406 220.53125 120.640625 221.179688 120.511719 Z M 221.179688 120.511719 " fill-opacity="1" fill-rule="nonzero"/><path fill="#f6f4f1" d="M 214.707031 106.953125 C 214.230469 106 212.566406 105.851562 212.28125 106.289062 C 212.128906 106.527344 212.375 106.929688 212.480469 107.101562 C 213.011719 107.96875 214.292969 108.414062 214.707031 108.023438 C 214.953125 107.789062 214.867188 107.265625 214.707031 106.953125 Z M 214.707031 106.953125 " fill-opacity="1" fill-rule="nonzero"/></svg>